<svg xmlns="http://www.w3.org/2000/svg" width="180" height="180" viewBox="0 0 88 88"><rect x="0" y="0" width="88" height="88" rx="0" fill="#fbfcfa"></rect><g transform="translate(44,44)"><path d="M0 -24 C7.5 -24 13 -15 13 0 C13 15 7.5 24 0 24 C-7.5 24 -13 15 -13 0 C-13 -15 -7.5 -24 0 -24 Z" fill="#e03a2f" opacity="0.94" transform="rotate(0)"></path><path d="M0 -24 C7.5 -24 13 -15 13 0 C13 15 7.5 24 0 24 C-7.5 24 -13 15 -13 0 C-13 -15 -7.5 -24 0 -24 Z" fill="#f2c230" opacity="0.94" transform="rotate(72)"></path><path d="M0 -24 C7.5 -24 13 -15 13 0 C13 15 7.5 24 0 24 C-7.5 24 -13 15 -13 0 C-13 -15 -7.5 -24 0 -24 Z" fill="#3d9e52" opacity="0.94" transform="rotate(144)"></path><path d="M0 -24 C7.5 -24 13 -15 13 0 C13 15 7.5 24 0 24 C-7.5 24 -13 15 -13 0 C-13 -15 -7.5 -24 0 -24 Z" fill="#14181c" opacity="0.94" transform="rotate(216)"></path><path d="M0 -24 C7.5 -24 13 -15 13 0 C13 15 7.5 24 0 24 C-7.5 24 -13 15 -13 0 C-13 -15 -7.5 -24 0 -24 Z" fill="#2f5fc4" opacity="0.94" transform="rotate(288)"></path><circle r="8" fill="#fbfcfa" stroke="#14181c" stroke-width="1.6"></circle></g></svg>