<svg xmlns="http://www.w3.org/2000/svg" width="340" height="68" viewBox="0 0 340 68">
  <g transform="translate(16,12)"><g transform="translate(0.5,0.5) scale(0.5)"><g transform="translate(44,44)"><path d="M0 -24 C7.5 -24 13 -15 13 0 C13 15 7.5 24 0 24 C-7.5 24 -13 15 -13 0 C-13 -15 -7.5 -24 0 -24 Z" fill="#e03a2f" opacity="0.94" transform="rotate(0)"></path><path d="M0 -24 C7.5 -24 13 -15 13 0 C13 15 7.5 24 0 24 C-7.5 24 -13 15 -13 0 C-13 -15 -7.5 -24 0 -24 Z" fill="#f2c230" opacity="0.94" transform="rotate(72)"></path><path d="M0 -24 C7.5 -24 13 -15 13 0 C13 15 7.5 24 0 24 C-7.5 24 -13 15 -13 0 C-13 -15 -7.5 -24 0 -24 Z" fill="#3d9e52" opacity="0.94" transform="rotate(144)"></path><path d="M0 -24 C7.5 -24 13 -15 13 0 C13 15 7.5 24 0 24 C-7.5 24 -13 15 -13 0 C-13 -15 -7.5 -24 0 -24 Z" fill="#14181c" opacity="0.94" transform="rotate(216)"></path><path d="M0 -24 C7.5 -24 13 -15 13 0 C13 15 7.5 24 0 24 C-7.5 24 -13 15 -13 0 C-13 -15 -7.5 -24 0 -24 Z" fill="#2f5fc4" opacity="0.94" transform="rotate(288)"></path><circle r="8" fill="#fbfcfa" stroke="#14181c" stroke-width="1.6"></circle></g></g></g>
  <text x="72" y="31" font-family="&#39;Inter&#39;,Arial,Helvetica,sans-serif" font-size="20" font-weight="800" fill="#0b1215">einksmart</text>
  <text x="72" y="47" font-family="&#39;Inter&#39;,Arial,Helvetica,sans-serif" font-size="11" font-weight="700" fill="#5f6866">Color E-Ink Content Platform</text>
  </svg>