<svg xmlns="http://www.w3.org/2000/svg" width="1200" height="630" viewBox="0 0 1200 630">
  <rect width="1200" height="630" fill="#fbfcfa"></rect>
  <rect x="0" y="0" width="1200" height="8" fill="#146e68"></rect>
  <g transform="translate(600,232)"><g transform="translate(-88,-88) scale(2)"><g transform="translate(44,44)"><path d="M0 -24 C7.5 -24 13 -15 13 0 C13 15 7.5 24 0 24 C-7.5 24 -13 15 -13 0 C-13 -15 -7.5 -24 0 -24 Z" fill="#e03a2f" opacity="0.94" transform="rotate(0)"></path><path d="M0 -24 C7.5 -24 13 -15 13 0 C13 15 7.5 24 0 24 C-7.5 24 -13 15 -13 0 C-13 -15 -7.5 -24 0 -24 Z" fill="#f2c230" opacity="0.94" transform="rotate(72)"></path><path d="M0 -24 C7.5 -24 13 -15 13 0 C13 15 7.5 24 0 24 C-7.5 24 -13 15 -13 0 C-13 -15 -7.5 -24 0 -24 Z" fill="#3d9e52" opacity="0.94" transform="rotate(144)"></path><path d="M0 -24 C7.5 -24 13 -15 13 0 C13 15 7.5 24 0 24 C-7.5 24 -13 15 -13 0 C-13 -15 -7.5 -24 0 -24 Z" fill="#14181c" opacity="0.94" transform="rotate(216)"></path><path d="M0 -24 C7.5 -24 13 -15 13 0 C13 15 7.5 24 0 24 C-7.5 24 -13 15 -13 0 C-13 -15 -7.5 -24 0 -24 Z" fill="#2f5fc4" opacity="0.94" transform="rotate(288)"></path><circle r="8" fill="#fbfcfa" stroke="#14181c" stroke-width="1.6"></circle></g></g></g>
  <text x="600" y="430" text-anchor="middle" font-family="&#39;Inter&#39;,Arial,Helvetica,sans-serif" font-size="64" font-weight="800" fill="#0b1215">einksmart</text>
  <text x="600" y="480" text-anchor="middle" font-family="&#39;Inter&#39;,Arial,Helvetica,sans-serif" font-size="24" font-weight="600" fill="#5f6866">Color E-Ink Content Platform</text>
  <text x="600" y="556" text-anchor="middle" font-family="&#39;Inter&#39;,Arial,Helvetica,sans-serif" font-size="18" font-weight="600" fill="#146e68" letter-spacing="1.5">Spectra 6 · Vivid Full Color · Paper-like</text>
  </svg>